<?xml version="1.0"?>
<svg xmlns="http://www.w3.org/2000/svg" xmlns:xlink="http://www.w3.org/1999/xlink" xmlns:svgjs="http://svgjs.com/svgjs" version="1.1" width="512" height="512" x="0" y="0" viewBox="0 0 512 512" style="enable-background:new 0 0 512 512" xml:space="preserve" class=""><g><path xmlns="http://www.w3.org/2000/svg" d="m392 512h-272c-66.168 0-120-53.832-120-120v-272c0-66.168 53.832-120 120-120h272c66.168 0 120 53.832 120 120v272c0 66.168-53.832 120-120 120zm-272-472c-44.112 0-80 35.888-80 80v272c0 44.112 35.888 80 80 80h272c44.112 0 80-35.888 80-80v-272c0-44.112-35.888-80-80-80zm0 328c-13.807 0-25 11.193-25 25s11.193 25 25 25 25-11.193 25-25-11.193-25-25-25zm163 30c0-92.636-75.364-168-168-168-11.046 0-20 8.954-20 20s8.954 20 20 20c70.579 0 128 57.42 128 128 0 11.046 8.954 20 20 20s20-8.954 20-20zm131 0c0-79.866-31.102-154.951-87.575-211.425s-131.56-87.575-211.425-87.575c-11.046 0-20 8.954-20 20s8.954 20 20 20c142.813 0 259 116.187 259 259 0 11.046 8.954 20 20 20s20-8.954 20-20z" fill="#858585" data-original="#000000" style="" class=""/></g></svg>
