<?xml version="1.0"?>
<svg xmlns="http://www.w3.org/2000/svg" xmlns:xlink="http://www.w3.org/1999/xlink" xmlns:svgjs="http://svgjs.com/svgjs" version="1.1" width="512" height="512" x="0" y="0" viewBox="0 0 512 512" style="enable-background:new 0 0 512 512" xml:space="preserve" class=""><g transform="matrix(1,0,0,1,35,0)"><path xmlns="http://www.w3.org/2000/svg" d="m135.832031 85c0-30.328125 24.671875-55 55-55s55 24.671875 55 55v107h30v-107c0-46.867188-38.132812-85-85-85-46.867187 0-85 38.132812-85 85v107h30zm0 0" fill="#b122cf" data-original="#000000" style=""/><path xmlns="http://www.w3.org/2000/svg" d="m165.832031 192v19.160156c13.277344-11.902344 30.804688-19.160156 50-19.160156v-80h-50zm0 0" fill="#b122cf" data-original="#000000" style=""/><path xmlns="http://www.w3.org/2000/svg" d="m215.832031 452c-41.355469 0-75-33.644531-75-75v-110c0-16.871094 5.601563-32.457031 15.039063-45h-80.039063v-110h-54.210937l-21.621094 400h381.664062l-3.242187-60zm0 0" fill="#b122cf" data-original="#000000" style=""/><path xmlns="http://www.w3.org/2000/svg" d="m360.042969 112h-54.210938v80h58.535157zm0 0" fill="#b122cf" data-original="#000000" style=""/><path xmlns="http://www.w3.org/2000/svg" d="m170.832031 377c0 24.8125 20.1875 45 45 45h186c24.8125 0 45-20.1875 45-45v-65h-276zm0 0" fill="#b122cf" data-original="#000000" style=""/><path xmlns="http://www.w3.org/2000/svg" d="m401.832031 222h-186c-24.8125 0-45 20.1875-45 45v15h276v-15c0-24.8125-20.1875-45-45-45zm0 0" fill="#b122cf" data-original="#000000" style=""/></g></svg>
