<?xml version="1.0"?>
<svg xmlns="http://www.w3.org/2000/svg" xmlns:xlink="http://www.w3.org/1999/xlink" xmlns:svgjs="http://svgjs.com/svgjs" version="1.1" width="512" height="512" x="0" y="0" viewBox="0 0 512.067 512.067" style="enable-background:new 0 0 512 512" xml:space="preserve" class=""><g transform="matrix(-1,0,0,1,512.06640625,0)">
<g xmlns="http://www.w3.org/2000/svg">
	<g>
		<g>
			<path d="M263.424,77.546l-30.992,9.6l9.456,30.56l85.456-26.448L300.896,5.802L270.4,15.274l10.88,35.2     C219.786,22.403,147.664,31.888,95.52,74.906c-9.567-5.594-20.438-8.573-31.52-8.64c-35.346,0-64,28.654-64,64     c0,35.346,28.654,64,64,64s64-28.654,64-64c-0.053-11.575-3.279-22.915-9.328-32.784     C159.752,65.113,215.123,57.487,263.424,77.546z M64,162.266c-17.673,0-32-14.327-32-32s14.327-32,32-32s32,14.327,32,32     S81.673,162.266,64,162.266z" fill="#808080" data-original="#000000" style="" class=""/>
			<path d="M505.6,149.706c13.282-22.942,5.451-52.308-17.491-65.59c-18.772-10.868-42.5-7.796-57.885,7.494     c-3.749-4.75-8.371-8.742-13.616-11.76c-22.955-13.26-52.313-5.401-65.573,17.554c-0.009,0.015-0.018,0.031-0.027,0.046     l-56.816,98.416c-36.061-11.983-75.579,3.006-94.624,35.888l-34.656,60.032l9.6,79.44l-13.376,23.04l27.728,16l18.656-32.336     l-9.6-79.424l29.344-50.8c10.202-17.581,30.343-26.864,50.336-23.2l-38.624,66.912l27.712,16l112-194     c4.649-7.515,14.51-9.838,22.025-5.188c7.196,4.452,9.681,13.737,5.671,21.188l-40,69.28l27.728,16l40-69.28l16-27.712     c4.469-7.623,14.272-10.18,21.895-5.711c7.552,4.427,10.144,14.101,5.817,21.711l-79.552,137.792l68.8,72.944l-47.376,82.064     l-73.6,31.424l-18.688,32.336l27.728,16l13.328-23.088l73.6-31.44l64.592-111.872l-68.8-72.944L505.6,149.706z" fill="#808080" data-original="#000000" style="" class=""/>
			<rect x="340.265" y="232.274" transform="matrix(0.8661 0.4999 -0.4999 0.8661 171.8312 -144.8531)" width="32" height="32" fill="#808080" data-original="#000000" style="" class=""/>
		</g>
	</g>
</g>
<g xmlns="http://www.w3.org/2000/svg">
</g>
<g xmlns="http://www.w3.org/2000/svg">
</g>
<g xmlns="http://www.w3.org/2000/svg">
</g>
<g xmlns="http://www.w3.org/2000/svg">
</g>
<g xmlns="http://www.w3.org/2000/svg">
</g>
<g xmlns="http://www.w3.org/2000/svg">
</g>
<g xmlns="http://www.w3.org/2000/svg">
</g>
<g xmlns="http://www.w3.org/2000/svg">
</g>
<g xmlns="http://www.w3.org/2000/svg">
</g>
<g xmlns="http://www.w3.org/2000/svg">
</g>
<g xmlns="http://www.w3.org/2000/svg">
</g>
<g xmlns="http://www.w3.org/2000/svg">
</g>
<g xmlns="http://www.w3.org/2000/svg">
</g>
<g xmlns="http://www.w3.org/2000/svg">
</g>
<g xmlns="http://www.w3.org/2000/svg">
</g>
</g></svg>
