<?xml version="1.0"?>
<svg xmlns="http://www.w3.org/2000/svg" xmlns:xlink="http://www.w3.org/1999/xlink" xmlns:svgjs="http://svgjs.com/svgjs" version="1.1" width="512" height="512" x="0" y="0" viewBox="0 0 512 512" style="enable-background:new 0 0 512 512" xml:space="preserve" class=""><g><g xmlns="http://www.w3.org/2000/svg"><g><path d="m433 512c-11.046 0-20-8.954-20-20 0-78.299-63.701-142-142-142h-30c-78.299 0-142 63.701-142 142 0 11.046-8.954 20-20 20s-20-8.954-20-20c0-100.355 81.645-182 182-182h30c100.355 0 182 81.645 182 182 0 11.046-8.954 20-20 20z" fill="#858585" data-original="#000000" style="" class=""/></g><g><path d="m254 270c-74.439 0-135-60.561-135-135s60.561-135 135-135 135 60.561 135 135-60.561 135-135 135zm0-230c-52.383 0-95 42.617-95 95s42.617 95 95 95 95-42.617 95-95-42.617-95-95-95z" fill="#858585" data-original="#000000" style="" class=""/></g></g></g></svg>
